<?xml version="1.0" encoding="utf-8"?><!DOCTYPE svg PUBLIC "-//W3C//DTD SVG 1.1//EN" "http://www.w3.org/Graphics/SVG/1.1/DTD/svg11.dtd"><svg xmlns="http://www.w3.org/2000/svg" xmlns:xlink="http://www.w3.org/1999/xlink"><symbol viewBox="0 0 22 9" id="arrow" xmlns="http://www.w3.org/2000/svg"><defs><style>.acls-1{fill:#fff;fill-rule:evenodd}</style></defs><path class="acls-1" d="M.3 5.472h16.948l-.1 2.857a.292.292 0 000 .41l.172.172a.28.28 0 00.2.086.285.285 0 00.2-.084l4.193-4.211A.292.292 0 0022 4.5a.283.283 0 00-.084-.2L17.723.087a.289.289 0 00-.407 0l-.172.173a.287.287 0 00-.084.2.278.278 0 00.084.2l.113 2.865H.292A.3.3 0 000 3.82v1.37a.292.292 0 00.3.282z"/></symbol><symbol viewBox="0 0 22 9" id="arrow-accent" xmlns="http://www.w3.org/2000/svg"><path fill="#436372" fill-rule="evenodd" d="M.3 5.472h16.948l-.1 2.857a.292.292 0 000 .41l.172.172a.28.28 0 00.2.086.285.285 0 00.2-.084l4.193-4.211A.292.292 0 0022 4.5a.283.283 0 00-.084-.2L17.723.087a.289.289 0 00-.407 0l-.172.173a.287.287 0 00-.084.2.278.278 0 00.084.2l.113 2.865H.292A.3.3 0 000 3.82v1.37a.292.292 0 00.3.282z"/></symbol><symbol viewBox="0 0 6.1 10.97" id="arrow-right" xmlns="http://www.w3.org/2000/svg"><defs><style>.ccls-1{fill:#262626;fill-rule:evenodd}</style></defs><path class="ccls-1" d="M.55 10.97a.53.53 0 01-.41-.19.6.6 0 01-.15-.4.631.631 0 01.17-.43l4.55-4.47L.16 1A.607.607 0 01-.01.58.629.629 0 01.14.17a.559.559 0 01.8-.02l4.98 4.9.01.01a.657.657 0 01.12.17.7.7 0 01.05.25.742.742 0 01-.05.25.61.61 0 01-.12.16c0 .01-.01.01-.01.02l-4.98 4.9a.589.589 0 01-.39.16z"/></symbol><symbol class="duser-nav__img" fill="#243f4d" fill-rule="evenodd" viewBox="0 0 18.94 16.969" id="cart" xmlns="http://www.w3.org/2000/svg"><path class="dcls-1" d="M5.53 16.978a2.074 2.074 0 110-4.147 2.056 2.056 0 011.46.6 2.03 2.03 0 01.61 1.466 2.071 2.071 0 01-2.07 2.081zm0-2.963a.889.889 0 10.34 1.71.9.9 0 00.55-.824.92.92 0 00-.26-.629.9.9 0 00-.63-.257zm8.39 2.963a2.045 2.045 0 01-1.46-.607 2.068 2.068 0 011.46-3.54 1.953 1.953 0 011.47.6 2.085 2.085 0 01-.67 3.383 2.093 2.093 0 01-.8.164zm0-2.963a.978.978 0 00-.82.548.887.887 0 001.16 1.161.891.891 0 00.29-1.452.9.9 0 00-.63-.257zm-11.27.164a.562.562 0 01-.25-.056.59.59 0 01-.29-.787 3.686 3.686 0 013.05-2.151L4.11 5.794a.591.591 0 111.16-.228l1.09 5.578h9.43l1.8-6.771H4.29A4.346 4.346 0 01.01.68.587.587 0 01.5.007a.6.6 0 01.68.5 3.159 3.159 0 003.11 2.682h14.07a.582.582 0 01.47.232.594.594 0 01.11.513l-2.13 7.956a.59.59 0 01-.57.44H5.88a.03.03 0 00-.02 0 2.66 2.66 0 00-2.68 1.51.586.586 0 01-.53.338z"/></symbol><symbol viewBox="0 0 512 512" id="clock" xmlns="http://www.w3.org/2000/svg"><path d="M347.216 301.211l-71.387-53.54V138.609c0-10.966-8.864-19.83-19.83-19.83-10.966 0-19.83 8.864-19.83 19.83v118.978c0 6.246 2.935 12.136 7.932 15.864l79.318 59.489a19.713 19.713 0 0011.878 3.966c6.048 0 11.997-2.717 15.884-7.952 6.585-8.746 4.8-21.179-3.965-27.743z"/><path d="M256 0C114.833 0 0 114.833 0 256s114.833 256 256 256 256-114.833 256-256S397.167 0 256 0zm0 472.341c-119.275 0-216.341-97.066-216.341-216.341S136.725 39.659 256 39.659c119.295 0 216.341 97.066 216.341 216.341S375.275 472.341 256 472.341z"/></symbol><symbol viewBox="0 0 55 37" id="delivery" xmlns="http://www.w3.org/2000/svg"><path fill="#a3bbc8" d="M10.602 6.12a.786.786 0 01-.786.786H3.69a.786.786 0 010-1.572h6.126c.434 0 .786.352.786.785zm.523 11.006a.785.785 0 01-.785.786H4.738a.785.785 0 010-1.572h5.602c.434 0 .785.352.785.786zm-2.094-4.717a.786.786 0 01-.785.786h-6.65a.786.786 0 010-1.572h6.65c.433 0 .785.352.785.786zm0 11.006a.786.786 0 01-.785.787H7.6a.786.786 0 010-1.573h.645c.433 0 .785.352.785.786zm-3.262 0a.786.786 0 01-.786.787H1.596a.786.786 0 010-1.573h3.387c.434 0 .786.352.786.786zm44.153-12.56V24.94a.786.786 0 01-.785.787h-2.782a4.983 4.983 0 01-4.912 4.192 4.983 4.983 0 01-4.912-4.192H25.28a4.983 4.983 0 01-4.911 4.192 4.983 4.983 0 01-4.912-4.192h-2.42a.786.786 0 01-.784-.787V1.354c0-.434.351-.786.785-.786h6.046a.786.786 0 010 1.572h-5.26v22.014h1.633a4.983 4.983 0 014.912-4.193 4.983 4.983 0 014.911 4.193h8.336V23.03a.785.785 0 111.57 0v1.125h1.346a4.983 4.983 0 014.912-4.193 4.983 4.983 0 014.912 4.193h1.997v-13.3c0-3.591-2.92-6.513-6.509-6.513h-6.657V19.36a.786.786 0 11-1.571 0V2.14h-11.39a.786.786 0 010-1.572H34.4c.434 0 .786.352.786.786v1.415h6.657c4.455 0 8.08 3.628 8.08 8.086zM23.772 24.94a3.409 3.409 0 00-3.404-3.406 3.409 3.409 0 00-3.404 3.406 3.409 3.409 0 003.404 3.407 3.409 3.409 0 003.403-3.407zm21.075 0a3.409 3.409 0 00-3.404-3.406 3.408 3.408 0 00-3.403 3.406v.001a3.41 3.41 0 003.403 3.406 3.409 3.409 0 003.404-3.407zm1.934-14.085v3.235a.786.786 0 01-.786.787h-8.453a.786.786 0 01-.785-.787V6.7c0-.434.351-.786.785-.786h4.301a4.945 4.945 0 014.938 4.941zm-1.571 0a3.372 3.372 0 00-3.367-3.368h-3.515v5.817h6.882zM22.392 24.94a2.028 2.028 0 01-2.024 2.027 2.028 2.028 0 01-2.025-2.027c0-1.117.908-2.027 2.025-2.027 1.116 0 2.024.91 2.024 2.027zm-1.57 0a.455.455 0 10-.91 0 .455.455 0 00.91 0zm22.646 0a2.028 2.028 0 01-2.025 2.027 2.028 2.028 0 01-2.025-2.027 2.03 2.03 0 012.025-2.027c1.117 0 2.025.91 2.025 2.027zm-1.57 0a.455.455 0 10-.91 0 .455.455 0 00.91 0zm4.883-7.128v1.992a.786.786 0 11-1.571 0v-1.992a.786.786 0 111.57 0z"/><path fill="#a3bbc8" d="M44.75 17.406c5.42 0 9.812 4.386 9.812 9.797 0 5.41-4.393 9.797-9.812 9.797-5.42 0-9.813-4.386-9.813-9.797 0-5.41 4.394-9.797 9.813-9.797z" opacity=".34"/></symbol><symbol class="guser-nav__img" viewBox="0 0 24 24" fill="none" stroke="#243f4d" stroke-width="2" stroke-linecap="round" stroke-linejoin="round" id="heart" xmlns="http://www.w3.org/2000/svg"><path d="M20.84 4.61a5.5 5.5 0 00-7.78 0L12 5.67l-1.06-1.06a5.5 5.5 0 00-7.78 7.78l1.06 1.06L12 21.23l7.78-7.78 1.06-1.06a5.5 5.5 0 000-7.78z"/></symbol><symbol fill="#fff" fill-rule="evenodd" viewBox="0 0 20.03 20.031" id="menu" xmlns="http://www.w3.org/2000/svg"><path class="hcls-1" d="M2.15 4.287a2.146 2.146 0 112.14-2.145 2.145 2.145 0 01-2.14 2.145zm0 7.869a2.146 2.146 0 112.14-2.147 2.146 2.146 0 01-2.14 2.147zm0 7.868a2.146 2.146 0 112.14-2.146 2.145 2.145 0 01-2.14 2.146zm7.86-15.737a2.146 2.146 0 112.15-2.145 2.143 2.143 0 01-2.15 2.145zm0 7.869a2.146 2.146 0 112.15-2.147 2.144 2.144 0 01-2.15 2.147zm0 7.868a2.146 2.146 0 112.15-2.146 2.143 2.143 0 01-2.15 2.146zm7.87-15.737a2.146 2.146 0 112.15-2.145 2.143 2.143 0 01-2.15 2.145zm0 7.869a2.146 2.146 0 112.15-2.147 2.144 2.144 0 01-2.15 2.147zm0 7.868a2.146 2.146 0 112.15-2.146 2.143 2.143 0 01-2.15 2.146z"/></symbol><symbol viewBox="0 0 54 53" id="payment" xmlns="http://www.w3.org/2000/svg"><path fill="#a3bbc8" d="M47.261 32.151v8.265a3.84 3.84 0 01-3.834 3.838H4.092a3.84 3.84 0 01-3.834-3.837v-23.62a3.841 3.841 0 013.834-3.839H29.22a.836.836 0 010 1.673H4.092a2.167 2.167 0 00-2.163 2.166v2.884h9.869a.836.836 0 010 1.673H1.929v5.47H29.22a.837.837 0 010 1.673H1.93v11.92c0 1.193.97 2.165 2.162 2.165h39.335a2.167 2.167 0 002.162-2.165V32.15a.836.836 0 111.672 0zM30.056 20.518a.836.836 0 01-.836.837H15.004a.836.836 0 010-1.674H29.22c.462 0 .836.375.836.837zm-9.238 11.555a.836.836 0 01-.836.837H5.71a.836.836 0 010-1.674h14.27c.462 0 .837.375.837.837zm-6.087 3.991a.836.836 0 01-.836.837H5.711a.836.836 0 010-1.673h8.185c.461 0 .835.375.835.836zm32.967-15.28v-4.773c0-.755-.614-1.37-1.37-1.37H34.434c-.755 0-1.37.615-1.37 1.37V26.76c0 .756.615 1.37 1.37 1.37H46.33c.755 0 1.37-.614 1.37-1.37v-3.186a.836.836 0 111.671 0v3.186a3.047 3.047 0 01-3.041 3.044H34.434a3.046 3.046 0 01-3.04-3.044V16.012a3.049 3.049 0 012.392-2.975V7.021c0-3.64 2.959-6.603 6.595-6.603 3.637 0 6.595 2.962 6.595 6.603v6.016a3.048 3.048 0 012.394 2.974v4.773a.836.836 0 11-1.672 0zm-2.394-7.817V7.021a4.931 4.931 0 00-4.923-4.929 4.931 4.931 0 00-4.923 4.929v5.946zm-1.83 7.417a3.099 3.099 0 01-2.257 2.98v2.04a.835.835 0 11-1.671 0v-2.04a3.099 3.099 0 01-2.257-2.98 3.097 3.097 0 013.093-3.095 3.097 3.097 0 013.092 3.095zm-1.672 0c0-.783-.637-1.422-1.42-1.422a1.423 1.423 0 000 2.844c.783 0 1.42-.637 1.42-1.422z"/><path fill="#a3bbc8" d="M44 33.062c5.42 0 9.812 4.386 9.812 9.797 0 5.41-4.393 9.797-9.812 9.797-5.42 0-9.813-4.386-9.813-9.797 0-5.41 4.394-9.797 9.813-9.797z" opacity=".34"/></symbol><symbol class="juser-nav__img" fill="#243f4d" fill-rule="evenodd" viewBox="0 0 15.28 15.281" id="search" xmlns="http://www.w3.org/2000/svg"><path class="jcls-1" d="M2.98 6.076a.617.617 0 01.75.485 2.583 2.583 0 00.78 1.489A3.036 3.036 0 006 8.827a.636.636 0 01.49.743.649.649 0 01-.72.515 4.21 4.21 0 01-2.14-1.13A4.164 4.164 0 012.5 6.819a.6.6 0 01.48-.743zM6.26 0a6.267 6.267 0 016.28 6.257 6.136 6.136 0 01-.57 2.6l2.34 2.036c1.7 1.746.74 3.266.29 3.717-.42.454-1.99 1.414-3.73-.292l-2.06-2.35A6.261 6.261 0 116.26 0zm5.55 13.517a1.352 1.352 0 001.88.226 1.313 1.313 0 00-.23-1.874l-2.16-1.88a6.236 6.236 0 01-1.37 1.34zm-5.55-2.312a4.948 4.948 0 10-4.97-4.948A4.963 4.963 0 006.26 11.2z"/></symbol><symbol viewBox="0 0 51 54" id="support" xmlns="http://www.w3.org/2000/svg"><path fill="#a3bbc8" d="M40.984 33.594c5.41 0 9.797 4.393 9.797 9.812 0 5.42-4.386 9.813-9.797 9.813-5.41 0-9.797-4.394-9.797-9.813 0-5.42 4.387-9.812 9.797-9.812z" opacity=".34"/><path fill="#a3bbc8" d="M49.02 24.65c0 13.54-11.017 24.556-24.557 24.556A24.349 24.349 0 019.735 44.3a.937.937 0 111.125-1.5 22.487 22.487 0 0013.603 4.53c12.506 0 22.681-10.174 22.681-22.68 0-4.254-1.184-8.399-3.424-11.988a.938.938 0 011.592-.993 24.495 24.495 0 013.707 12.98zm-25.801 9.896c0 .517-.42.938-.938.938h-9.813a.937.937 0 01-.663-1.601l6.344-6.343c2.06-2.06 3.195-4.8 3.195-7.714 0-2.189-1.78-3.97-3.97-3.97a3.973 3.973 0 00-3.968 3.97.937.937 0 11-1.875 0 5.851 5.851 0 015.844-5.844 5.851 5.851 0 015.844 5.844 12.7 12.7 0 01-3.744 9.039l-4.743 4.743h7.55c.517 0 .937.42.937.938zm15.04-6.438c0 .517-.42.938-.938.938h-2.6v5.5a.938.938 0 01-1.876 0v-5.5h-6.938a.937.937 0 01-.805-1.419l7.875-13.188a.938.938 0 011.742.472l.001.008v7.61a.937.937 0 11-1.875 0v-4.21l-5.286 8.851h5.286v-1.516a.938.938 0 011.875 0v1.516h2.601c.518 0 .938.42.938.938zm4.488-19.51a.938.938 0 01-.915.96l-4.06.096h-.023a.937.937 0 01-.022-1.874l1.843-.043a22.76 22.76 0 00-15.107-5.768c-12.506 0-22.68 10.175-22.68 22.681 0 6.14 2.414 11.891 6.798 16.193a.937.937 0 11-1.312 1.338C2.522 37.525-.093 31.298-.093 24.65-.093 11.11 10.923.094 24.463.094c3.485 0 6.853.715 10.01 2.126a24.405 24.405 0 016.345 4.112l-.042-1.749a.938.938 0 011.875-.045z"/></symbol><symbol viewBox="0 0 284.929 284.929" id="up-angle" xmlns="http://www.w3.org/2000/svg"><path d="M282.082 195.285L149.028 62.24c-1.901-1.903-4.088-2.856-6.562-2.856s-4.665.953-6.567 2.856L2.856 195.285C.95 197.191 0 199.378 0 201.853c0 2.474.953 4.664 2.856 6.566l14.272 14.271c1.903 1.903 4.093 2.854 6.567 2.854s4.664-.951 6.567-2.854l112.204-112.202 112.208 112.209c1.902 1.903 4.093 2.848 6.563 2.848 2.478 0 4.668-.951 6.57-2.848l14.274-14.277c1.902-1.902 2.847-4.093 2.847-6.566.001-2.476-.944-4.666-2.846-6.569z"/></symbol><symbol viewBox="0 0 32 32" id="user" xmlns="http://www.w3.org/2000/svg"><g fill="#030104"><path d="M16 16C9.375 16 4 21.375 4 28c0 2.211 1.789 4 4 4h16c2.211 0 4-1.789 4-4 0-6.625-5.375-12-12-12z"/><circle cx="16" cy="6" r="6"/></g></symbol><symbol viewBox="0 0 127 127" id="video" xmlns="http://www.w3.org/2000/svg"><g opacity=".4"><path d="M63.5 0C98.57 0 127 28.43 127 63.5S98.57 127 63.5 127 0 98.57 0 63.5 28.43 0 63.5 0z" fill="#a3bbc8"/></g><path d="M63 14c27.062 0 49 21.938 49 49s-21.938 49-49 49-49-21.938-49-49 21.938-49 49-49z" fill="#a3bbc8"/><g><path d="M73.684 64.74L57.64 74.536c-.5.306-1.08.46-1.663.46-.48 0-.96-.105-1.399-.316-.972-.47-1.579-1.387-1.579-2.385V52.7c0-.999.607-1.917 1.58-2.386a3.242 3.242 0 013.061.143l16.044 9.798c.822.502 1.315 1.343 1.315 2.241 0 .9-.493 1.741-1.315 2.244z" fill="#fff"/></g></symbol></svg>