<svg xmlns="http://www.w3.org/2000/svg" width="55" height="37" viewBox="0 0 55 37"><g><g><path fill="#a3bbc8" d="M10.602 6.12a.786.786 0 0 1-.786.786H3.69a.786.786 0 0 1 0-1.572h6.126c.434 0 .786.352.786.785zm.523 11.006a.785.785 0 0 1-.785.786H4.738a.785.785 0 0 1 0-1.572h5.602c.434 0 .785.352.785.786zm-2.094-4.717a.786.786 0 0 1-.785.786h-6.65a.786.786 0 0 1 0-1.572h6.65c.433 0 .785.352.785.786zm0 11.006a.786.786 0 0 1-.785.787H7.6a.786.786 0 0 1 0-1.573h.645c.433 0 .785.352.785.786zm-3.262 0a.786.786 0 0 1-.786.787H1.596a.786.786 0 0 1 0-1.573h3.387c.434 0 .786.352.786.786zm44.153-12.56V24.94a.786.786 0 0 1-.785.787h-2.782a4.983 4.983 0 0 1-4.912 4.192 4.983 4.983 0 0 1-4.912-4.192H25.28a4.983 4.983 0 0 1-4.911 4.192 4.983 4.983 0 0 1-4.912-4.192h-2.42a.786.786 0 0 1-.784-.787V1.354c0-.434.351-.786.785-.786h6.046a.786.786 0 0 1 0 1.572h-5.26v22.014h1.633a4.983 4.983 0 0 1 4.912-4.193 4.983 4.983 0 0 1 4.911 4.193h8.336V23.03a.785.785 0 1 1 1.57 0v1.125h1.346a4.983 4.983 0 0 1 4.912-4.193 4.983 4.983 0 0 1 4.912 4.193h1.997V10.855c0-3.591-2.92-6.513-6.509-6.513h-6.657V19.36a.786.786 0 1 1-1.571 0V2.14h-11.39a.786.786 0 0 1 0-1.572H34.4c.434 0 .786.352.786.786v1.415h6.657c4.455 0 8.08 3.628 8.08 8.086zM23.772 24.94a3.409 3.409 0 0 0-3.404-3.406 3.409 3.409 0 0 0-3.404 3.406 3.409 3.409 0 0 0 3.404 3.407 3.409 3.409 0 0 0 3.403-3.407zm21.075 0a3.409 3.409 0 0 0-3.404-3.406 3.408 3.408 0 0 0-3.403 3.406v.001a3.41 3.41 0 0 0 3.403 3.406 3.409 3.409 0 0 0 3.404-3.407zm1.934-14.085v3.235a.786.786 0 0 1-.786.787h-8.453a.786.786 0 0 1-.785-.787V6.7c0-.434.351-.786.785-.786h4.301a4.945 4.945 0 0 1 4.938 4.941zm-1.571 0a3.372 3.372 0 0 0-3.367-3.368h-3.515v5.817h6.882zM22.392 24.94a2.028 2.028 0 0 1-2.024 2.027 2.028 2.028 0 0 1-2.025-2.027c0-1.117.908-2.027 2.025-2.027 1.116 0 2.024.91 2.024 2.027zm-1.57 0a.455.455 0 1 0-.91 0 .455.455 0 0 0 .91 0zm22.646 0a2.028 2.028 0 0 1-2.025 2.027 2.028 2.028 0 0 1-2.025-2.027c0-1.117.909-2.027 2.025-2.027 1.117 0 2.025.91 2.025 2.027zm-1.57 0a.455.455 0 1 0-.91 0 .455.455 0 0 0 .91 0zm4.883-7.128v1.992a.786.786 0 1 1-1.571 0v-1.992a.786.786 0 1 1 1.57 0z"/></g><g opacity=".34"><path fill="#a3bbc8" d="M44.75 17.406c5.42 0 9.812 4.386 9.812 9.797 0 5.41-4.393 9.797-9.812 9.797-5.42 0-9.813-4.386-9.813-9.797 0-5.41 4.394-9.797 9.813-9.797z"/></g></g></svg>