<svg xmlns="http://www.w3.org/2000/svg" width="54" height="53" viewBox="0 0 54 53"><g><g><path fill="#a3bbc8" d="M47.261 32.151v8.265a3.84 3.84 0 0 1-3.834 3.838H4.092a3.84 3.84 0 0 1-3.834-3.837v-23.62a3.841 3.841 0 0 1 3.834-3.839H29.22a.836.836 0 0 1 0 1.673H4.092a2.167 2.167 0 0 0-2.163 2.166v2.884h9.869a.836.836 0 0 1 0 1.673H1.929v5.47H29.22a.837.837 0 0 1 0 1.673H1.93v11.92c0 1.193.97 2.165 2.162 2.165h39.335a2.167 2.167 0 0 0 2.162-2.165V32.15a.836.836 0 1 1 1.672 0zM30.056 20.518a.836.836 0 0 1-.836.837H15.004a.836.836 0 0 1 0-1.674H29.22c.462 0 .836.375.836.837zm-9.238 11.555a.836.836 0 0 1-.836.837H5.71a.836.836 0 0 1 0-1.674h14.27c.462 0 .837.375.837.837zm-6.087 3.991a.836.836 0 0 1-.836.837H5.711a.836.836 0 0 1 0-1.673h8.185c.461 0 .835.375.835.836zm32.967-15.28v-4.773c0-.755-.614-1.37-1.37-1.37H34.434c-.755 0-1.37.615-1.37 1.37V26.76c0 .756.615 1.37 1.37 1.37H46.33c.755 0 1.37-.614 1.37-1.37v-3.186a.836.836 0 1 1 1.671 0v3.186a3.047 3.047 0 0 1-3.041 3.044H34.434a3.046 3.046 0 0 1-3.04-3.044V16.012a3.049 3.049 0 0 1 2.392-2.975V7.021c0-3.64 2.959-6.603 6.595-6.603 3.637 0 6.595 2.962 6.595 6.603v6.016a3.048 3.048 0 0 1 2.394 2.974v4.773a.836.836 0 1 1-1.672 0zm-2.394-7.817V7.021a4.931 4.931 0 0 0-4.923-4.929 4.931 4.931 0 0 0-4.923 4.929v5.946zm-1.83 7.417a3.099 3.099 0 0 1-2.257 2.98v2.04a.835.835 0 1 1-1.671 0v-2.04a3.099 3.099 0 0 1-2.257-2.98 3.097 3.097 0 0 1 3.093-3.095 3.097 3.097 0 0 1 3.092 3.095zm-1.672 0c0-.783-.637-1.422-1.42-1.422a1.423 1.423 0 0 0 0 2.844c.783 0 1.42-.637 1.42-1.422z"/></g><g opacity=".34"><path fill="#a3bbc8" d="M44 33.062c5.42 0 9.812 4.386 9.812 9.797 0 5.41-4.393 9.797-9.812 9.797-5.42 0-9.813-4.386-9.813-9.797 0-5.41 4.394-9.797 9.813-9.797z"/></g></g></svg>