<svg xmlns="http://www.w3.org/2000/svg" width="51" height="54" viewBox="0 0 51 54"><g><g opacity=".34"><path fill="#a3bbc8" d="M40.984 33.594c5.41 0 9.797 4.393 9.797 9.812 0 5.42-4.386 9.813-9.797 9.813-5.41 0-9.797-4.394-9.797-9.813 0-5.42 4.387-9.812 9.797-9.812z"/></g><g><path fill="#a3bbc8" d="M49.02 24.65c0 13.54-11.017 24.556-24.557 24.556-5.36 0-10.453-1.697-14.728-4.906a.937.937 0 1 1 1.125-1.5 22.487 22.487 0 0 0 13.603 4.53c12.506 0 22.681-10.174 22.681-22.68 0-4.254-1.184-8.399-3.424-11.988a.938.938 0 0 1 1.592-.993 24.495 24.495 0 0 1 3.707 12.98zm-25.801 9.896c0 .517-.42.938-.938.938h-9.813a.937.937 0 0 1-.663-1.601l6.344-6.343c2.06-2.06 3.195-4.8 3.195-7.714 0-2.189-1.78-3.97-3.97-3.97a3.973 3.973 0 0 0-3.968 3.97.937.937 0 1 1-1.875 0 5.851 5.851 0 0 1 5.844-5.844 5.851 5.851 0 0 1 5.844 5.844c0 3.415-1.33 6.625-3.744 9.039l-4.743 4.743h7.55c.517 0 .937.42.937.938zm15.04-6.438c0 .517-.42.938-.938.938h-2.6v5.5a.938.938 0 0 1-1.876 0v-5.5h-6.938a.937.937 0 0 1-.805-1.419l7.875-13.188a.938.938 0 0 1 1.742.472l.001.008v7.61a.937.937 0 1 1-1.875 0v-4.21l-5.286 8.851h5.286v-1.516a.938.938 0 0 1 1.875 0v1.516h2.601c.518 0 .938.42.938.938zm4.488-19.51a.938.938 0 0 1-.915.96l-4.06.096h-.023a.937.937 0 0 1-.022-1.874l1.843-.043a22.76 22.76 0 0 0-15.107-5.768c-12.506 0-22.68 10.175-22.68 22.681 0 6.14 2.414 11.891 6.798 16.193a.937.937 0 1 1-1.312 1.338C2.522 37.525-.093 31.298-.093 24.65-.093 11.11 10.923.094 24.463.094c3.485 0 6.853.715 10.01 2.126a24.405 24.405 0 0 1 6.345 4.112l-.042-1.749a.938.938 0 0 1 1.875-.045z"/></g></g></svg>