<?xml version="1.0" encoding="UTF-8"?>
<svg id="SVGDoc" width="127" height="127" xmlns="http://www.w3.org/2000/svg" version="1.1" xmlns:xlink="http://www.w3.org/1999/xlink" xmlns:avocode="https://avocode.com/" viewBox="0 0 127 127"><defs></defs><desc>Generated with Avocode.</desc><g><g opacity="0.4"><title>Ellipse 11</title><path d="M63.49999,-0.00016c35.07008,0 63.49995,28.43005 63.49995,63.49995c0,35.07022 -28.42987,63.49995 -63.49995,63.49995c-35.07008,0 -63.50006,-28.42973 -63.50006,-63.49995c0,-35.0699 28.42999,-63.49995 63.50006,-63.49995z" fill="#a3bbc8" fill-opacity="1"></path></g><g><title>Ellipse 11</title><path d="M63,13.99982c27.06184,0 48.99994,21.93793 48.99994,48.99994c0,27.06202 -21.9381,48.99994 -48.99994,48.99994c-27.06196,0 -49.00005,-21.93793 -49.00005,-48.99994c0,-27.06202 21.9381,-48.99994 49.00005,-48.99994z" fill="#a3bbc8" fill-opacity="1"></path></g><g><title>Form 24</title><path d="M73.68398,64.73972l-16.04404,9.79652c-0.50056,0.30622 -1.08067,0.46048 -1.66271,0.46048c-0.47951,0 -0.96039,-0.10523 -1.39915,-0.31635c-0.9716,-0.47028 -1.5786,-1.38732 -1.5786,-2.3854v-19.59501c0,-0.99874 0.60699,-1.91708 1.5786,-2.38638c0.97126,-0.46832 2.14874,-0.41374 3.06187,0.14347l16.04404,9.79783c0.82237,0.50231 1.3155,1.34287 1.3155,2.24161c0,0.89939 -0.49313,1.7406 -1.3155,2.24324z" fill="#ffffff" fill-opacity="1"></path></g></g></svg>